# Blender v2.70 (sub 0) OBJ File: 'ObjectTransformation3dGUIMoveV2.blend'
# www.blender.org
o XPlane
v 0.000000 0.192500 0.192500
v 0.000002 0.192500 2.792500
v -0.000002 2.792500 0.192500
v 0.000000 2.792500 2.792500
vn -1.000000 -0.000001 0.000001
g XPlane_XPlane_X
s off
f 1//1 2//1 4//1 3//1
o ZPlane
v -0.192500 0.192500 -0.000000
v -2.792500 0.192500 -0.000000
v -0.192500 2.792500 -0.000002
v -2.792500 2.792500 -0.000002
vn 0.000000 -0.000001 -1.000000
g ZPlane_ZPlane_Z
s off
f 5//2 6//2 8//2 7//2
o YPlane
v -0.192500 0.000000 0.192500
v -2.792500 0.000000 0.192500
v -0.192500 0.000000 2.792500
v -2.792500 0.000000 2.792500
vn 0.000000 1.000000 0.000000
g YPlane_YPlane_Y
s off
f 9//3 10//3 12//3 11//3
o Origin_Cube
v -0.400000 -0.400000 0.400000
v -0.400000 -0.400000 -0.400000
v 0.400000 -0.400000 -0.400000
v 0.400000 -0.400000 0.400000
v -0.400000 0.400000 0.400000
v -0.400000 0.400000 -0.400000
v 0.400000 0.400000 -0.400000
v 0.400000 0.400000 0.400000
vt 0.000000 0.000000
vt -1.000000 0.000000
vt -1.000000 1.000000
vt -0.000000 -1.000000
vt 1.000000 -1.000000
vt -0.000000 1.000000
vt 1.000000 0.000000
vt 2.000000 0.000000
vt 1.000000 1.000000
vn 0.000000 -1.000000 0.000000
vn 0.000000 1.000000 0.000000
vn -1.000000 -0.000000 -0.000001
vn 0.000001 -0.000000 -1.000000
vn 1.000000 -0.000000 0.000000
vn -0.000000 0.000000 1.000000
vn -1.000000 0.000000 0.000000
vn 0.000000 0.000000 -1.000000
g Origin_Cube_O
s off
f 14/1/4 15/2/4 16/3/4
f 20/1/5 19/4/5 18/5/5
f 13/1/6 17/6/6 18/3/6
f 14/1/7 18/6/7 19/3/7
f 19/1/8 20/7/8 16/5/8
f 13/1/9 16/2/9 20/3/9
f 13/1/4 14/4/4 16/2/4
f 17/6/5 20/3/5 18/1/5
f 14/1/10 13/7/10 18/6/10
f 15/7/11 14/8/11 19/9/11
f 15/1/8 19/6/8 16/7/8
f 17/1/9 13/4/9 20/2/9
o Z_CylinderZ
v 0.752159 0.001374 10.387278
v 0.695072 -0.285638 10.386322
v 0.532496 -0.528955 10.385077
v 0.289182 -0.691534 10.383730
v 0.002172 -0.748624 10.382489
v -0.005463 -0.003769 12.384396
v -0.284839 -0.691534 10.381541
v -0.528157 -0.528955 10.381031
v -0.690738 -0.285638 10.381037
v -0.747830 0.001374 10.381557
v -0.690743 0.288385 10.382513
v -0.528167 0.531702 10.383759
v -0.284853 0.694281 10.385105
v 0.002158 0.751371 10.386346
v 0.289169 0.694281 10.387294
v 0.532486 0.531701 10.387804
v 0.695066 0.288384 10.387798
v 0.240297 0.027084 0.386156
v 0.198317 -0.037647 10.385935
v 0.225074 -0.049453 0.385900
v 0.168455 -0.109742 10.385635
v 0.181720 -0.114337 0.385569
v 0.113276 -0.164922 10.385283
v 0.116836 -0.157691 0.385210
v 0.041181 -0.194785 10.384932
v 0.040300 -0.172915 0.384879
v -0.036855 -0.194785 10.384634
v -0.036236 -0.157691 0.384625
v -0.108951 -0.164922 10.384436
v -0.101121 -0.114337 0.384490
v -0.164131 -0.109742 10.384367
v -0.144476 -0.049452 0.384491
v -0.193994 -0.037647 10.384439
v -0.159700 0.027084 0.384630
v -0.193995 0.040389 10.384640
v -0.144477 0.103620 0.384885
v -0.164133 0.112485 10.384938
v -0.101123 0.168505 0.385217
v -0.108954 0.167665 10.385290
v -0.036240 0.211859 0.385576
v -0.036859 0.197528 10.385643
v 0.040296 0.227083 0.385907
v 0.041177 0.197528 10.385941
v 0.116833 0.211859 0.386160
v 0.113273 0.167665 10.386138
v 0.181717 0.168505 0.386296
v 0.168453 0.112485 10.386207
v 0.225072 0.103620 0.386294
v 0.198316 0.040389 10.386135
vt 0.749694 0.027891
vt 0.746328 0.162609
vt 0.725827 -0.235941
vt 0.739984 0.268667
vt 0.731595 0.329918
vt 0.722371 0.337038
vt 0.713647 0.288943
vt 0.706683 0.192954
vt 0.702493 0.063685
vt 0.701736 -0.079183
vt 0.704642 -0.213901
vt 0.749525 -0.114977
vt 0.710920 -0.319959
vt 0.719686 -0.381210
vt 0.729510 -0.388330
vt 0.738697 -0.340235
vt 0.745714 -0.244246
vt 0.731939 0.007133
vt 0.732329 -0.030604
vt 1.219380 1.040014
vt 1.219527 1.001916
vt 0.731730 -0.067599
vt 0.730223 -0.098222
vt 1.220627 0.967444
vt 0.728034 -0.117810
vt 1.222508 0.941847
vt 0.725500 -0.123380
vt 1.224884 0.929022
vt 0.723017 -0.114085
vt 0.227400 0.930920
vt 0.720972 -0.091341
vt 0.229682 0.947254
vt 0.719679 -0.058608
vt 0.231387 0.975536
vt 0.719329 -0.020872
vt 0.232257 1.011461
vt 0.719966 0.016124
vt 0.232152 1.049559
vt 0.721486 0.046747
vt 0.231079 1.084031
vt 0.723655 0.066335
vt 0.229195 1.109628
vt 0.726148 0.071905
vt 0.226786 1.122453
vt 0.728593 0.062610
vt 1.224226 1.120555
vt 1.221918 1.104221
vt 0.730625 0.039865
vt 1.220216 1.075939
vn 0.779045 -0.522308 0.346820
vn 0.919175 0.182209 0.349166
vn 0.779036 0.520531 0.349501
vn 0.520095 0.779471 0.349179
vn 0.181773 0.919609 0.348249
vn -0.184421 0.919610 0.346853
vn -0.522742 0.779472 0.345202
vn 0.003813 0.002572 -0.999989
vn -0.781678 0.520532 0.343548
vn -0.921811 0.182211 0.342145
vn -0.921808 -0.183986 0.341202
vn -0.781667 -0.522308 0.340868
vn -0.522727 -0.781247 0.341189
vn -0.184403 -0.921385 0.342119
vn 0.181790 -0.921385 0.343516
vn 0.520109 -0.781247 0.345166
vn 0.919179 -0.183986 0.348223
vn 0.707107 -0.707105 0.001263
vn 0.555576 -0.831466 -0.000403
vn 0.000009 -0.999998 -0.002187
vn 0.195100 -0.980781 -0.002162
vn -0.382673 -0.923877 -0.003451
vn -0.195078 -0.980781 -0.003650
vn -0.707096 -0.707105 -0.004131
vn -0.555556 -0.831466 -0.004641
vn -0.923871 -0.382683 -0.004123
vn -0.831457 -0.555567 -0.004984
vn -0.999994 -0.000001 -0.003429
vn -0.980775 -0.195088 -0.004626
vn -0.923878 0.382682 -0.002155
vn -0.980778 0.195091 -0.003623
vn -0.707109 0.707104 -0.000494
vn -0.831468 0.555569 -0.002127
vn -0.382690 0.923876 0.001300
vn -0.555572 0.831468 -0.000365
vn -0.000010 0.999996 0.002956
vn -0.195096 0.980783 0.001394
vn 0.382671 0.923875 0.004219
vn 0.195082 0.980783 0.002882
vn 0.707094 0.707103 0.004899
vn 0.555561 0.831467 0.003872
vn 0.923868 0.382679 0.004892
vn 0.831460 0.555568 0.004215
vn 0.980778 0.195090 0.003858
vn 0.980781 -0.195089 0.002855
vn 0.382688 -0.923877 -0.000532
vn 0.923875 -0.382683 0.002924
vn 0.831470 -0.555567 0.001358
vn 0.999991 -0.000001 0.004198
vn 0.003798 0.002572 -0.999989
vn 0.003834 0.002567 -0.999989
vn 0.003816 0.002564 -0.999989
vn 0.003798 0.002574 -0.999989
vn 0.003815 0.002571 -0.999989
vn 0.003812 0.002567 -0.999989
vn 0.003812 0.002572 -0.999989
vn 0.003815 0.002572 -0.999989
vn 0.003815 0.002570 -0.999989
vn 0.003814 0.002572 -0.999989
vn 0.003812 0.002568 -0.999989
vn 0.003815 0.002573 -0.999990
g Z_CylinderZ_Z
s off
f 23/10/12 22/11/12 26/12/12
f 26/12/13 21/13/13 37/14/13
f 36/15/14 26/12/14 37/14/14
f 35/16/15 26/12/15 36/15/15
f 34/17/16 26/12/16 35/16/16
f 33/18/17 26/12/17 34/17/17
f 32/19/18 26/12/18 33/18/18
f 31/20/19 37/14/19 24/21/19
f 31/20/20 26/12/20 32/19/20
f 31/20/21 30/22/21 26/12/21
f 30/22/22 29/23/22 26/12/22
f 29/23/23 28/24/23 26/12/23
f 28/24/24 27/25/24 26/12/24
f 27/25/25 25/26/25 26/12/25
f 25/26/26 24/21/26 26/12/26
f 24/21/27 23/10/27 26/12/27
f 26/12/28 22/11/28 21/13/28
f 41/27/29 43/28/29 42/29/29
f 44/30/30 42/29/30 43/28/30
f 45/31/31 47/32/31 46/33/31
f 46/33/32 44/30/32 45/31/32
f 47/32/33 49/34/33 48/35/33
f 48/35/34 46/33/34 47/32/34
f 49/34/35 51/36/35 50/37/35
f 50/37/36 48/35/36 49/34/36
f 51/36/37 53/38/37 52/39/37
f 52/39/38 50/37/38 51/36/38
f 53/38/39 55/40/39 54/41/39
f 54/41/40 52/39/40 53/38/40
f 55/40/41 57/42/41 56/43/41
f 56/43/42 54/41/42 55/40/42
f 57/42/43 59/44/43 58/45/43
f 58/45/44 56/43/44 57/42/44
f 59/44/45 61/46/45 60/47/45
f 60/47/46 58/45/46 59/44/46
f 61/46/47 63/48/47 62/49/47
f 62/49/48 60/47/48 61/46/48
f 63/48/49 65/50/49 64/51/49
f 64/51/50 62/49/50 63/48/50
f 65/50/51 67/52/51 66/53/51
f 66/53/52 64/51/52 65/50/52
f 69/54/53 68/55/53 67/52/53
f 68/55/54 66/53/54 67/52/54
f 69/54/55 38/56/55 68/55/55
f 39/57/56 40/58/56 38/56/56
f 43/28/57 45/31/57 44/30/57
f 39/57/58 41/27/58 40/58/58
f 42/29/59 40/58/59 41/27/59
f 38/56/60 69/54/60 39/57/60
f 37/14/61 21/13/61 22/11/61
f 22/11/62 23/10/62 24/21/62
f 24/21/63 25/26/63 27/25/63
f 27/25/64 28/24/64 29/23/64
f 31/20/65 24/21/65 30/22/65
f 31/20/66 32/19/66 33/18/66
f 33/18/63 34/17/63 35/16/63
f 37/14/67 33/18/67 36/15/67
f 37/14/68 22/11/68 24/21/68
f 24/21/69 27/25/69 29/23/69
f 33/18/70 37/14/70 31/20/70
f 33/18/71 35/16/71 36/15/71
f 24/21/72 29/23/72 30/22/72
o X_CylinderX
v -10.408461 0.001374 0.750000
v -10.407722 -0.285638 0.692910
v -10.407097 -0.528955 0.530330
v -10.406679 -0.691534 0.287013
v -10.406532 -0.748624 0.000000
v -12.408453 -0.003769 0.000000
v -10.406679 -0.691534 -0.287012
v -10.407097 -0.528955 -0.530330
v -10.407722 -0.285638 -0.692910
v -10.408461 0.001374 -0.750000
v -10.409199 0.288385 -0.692909
v -10.409824 0.531702 -0.530330
v -10.410242 0.694281 -0.287012
v -10.410389 0.751371 0.000001
v -10.410242 0.694281 0.287013
v -10.409824 0.531701 0.530331
v -10.409199 0.288384 0.692910
v -0.409362 0.027084 0.200000
v -10.409229 -0.037647 0.196157
v -0.409165 -0.049453 0.184776
v -10.409044 -0.109742 0.166294
v -0.408998 -0.114337 0.141421
v -10.408901 -0.164922 0.111114
v -0.408887 -0.157691 0.076537
v -10.408825 -0.194785 0.039018
v -0.408848 -0.172915 0.000000
v -10.408825 -0.194785 -0.039018
v -0.408887 -0.157691 -0.076537
v -10.408901 -0.164922 -0.111114
v -0.408998 -0.114337 -0.141421
v -10.409044 -0.109742 -0.166294
v -0.409165 -0.049452 -0.184776
v -10.409229 -0.037647 -0.196157
v -0.409362 0.027084 -0.200000
v -10.409430 0.040389 -0.196157
v -0.409559 0.103620 -0.184776
v -10.409615 0.112485 -0.166294
v -0.409726 0.168505 -0.141421
v -10.409758 0.167665 -0.111114
v -0.409837 0.211859 -0.076537
v -10.409834 0.197528 -0.039018
v -0.409876 0.227083 0.000000
v -10.409834 0.197528 0.039018
v -0.409837 0.211859 0.076537
v -10.409758 0.167665 0.111114
v -0.409726 0.168505 0.141422
v -10.409615 0.112485 0.166294
v -0.409559 0.103620 0.184776
v -10.409430 0.040389 0.196157
vt 0.452664 -1.676216
vt 0.465155 -1.622207
vt 0.432617 -2.254587
vt 0.470848 -1.544640
vt 0.470178 -1.455324
vt 0.464462 -1.367856
vt 0.455138 -1.295553
vt 0.443542 -1.249421
vt 0.430911 -1.236485
vt 0.418440 -1.258713
vt 0.407326 -1.312722
vt 0.435129 -1.698445
vt 0.398832 -1.390289
vt 0.394323 -1.479606
vt 0.395242 -1.567074
vt 0.402776 -1.639377
vt 0.416907 -1.685508
vt 0.439054 -1.517222
vt 0.435291 -1.527586
vt 0.928369 2.412140
vt 0.932101 2.406212
vt 1.431059 -1.528850
vt 1.427101 -1.520820
vt 0.935902 2.409662
vt 1.424096 -1.504719
vt 0.939266 2.421964
vt 1.422500 -1.482999
vt 0.941722 2.441245
vt 1.422490 -1.458966
vt 0.942882 2.464569
vt 1.423980 -1.436279
vt 0.942503 2.488387
vt 1.426686 -1.418392
vt 0.940553 2.509072
vt 1.430195 -1.408027
vt 0.937275 2.523474
vt 0.434025 -1.406764
vt 0.933188 2.529402
vt 0.437669 -1.414794
vt 0.929000 2.525952
vt 0.440634 -1.430895
vt 0.925444 2.513650
vt 0.442484 -1.452615
vt 0.923104 2.494369
vt 0.442893 -1.476648
vt 0.922297 2.471045
vt 0.923062 2.447227
vt 0.441716 -1.499335
vt 0.925204 2.426542
vn -0.343846 -0.522307 0.780362
vn -0.345657 0.182211 0.920500
vn -0.346527 0.520531 0.780363
vn -0.347193 0.779471 0.521422
vn -0.347554 0.919609 0.183100
vn -0.347553 0.919610 -0.183098
vn -0.347193 0.779473 -0.521421
vn 0.999997 0.002572 0.000000
vn -0.346527 0.520532 -0.780362
vn -0.345657 0.182213 -0.920500
vn -0.344716 -0.183987 -0.920500
vn -0.343846 -0.522307 -0.780362
vn -0.343180 -0.781247 -0.521421
vn -0.342820 -0.921384 -0.183099
vn -0.342820 -0.921384 0.183099
vn -0.343180 -0.781247 0.521421
vn -0.344716 -0.183987 0.920500
vn 0.001434 -0.707105 0.707107
vn 0.002522 -0.831466 0.555570
vn 0.002187 -0.999998 0.000000
vn 0.002906 -0.980781 0.195091
vn 0.001991 -0.923877 -0.382684
vn 0.002906 -0.980781 -0.195090
vn 0.001434 -0.707105 -0.707107
vn 0.002522 -0.831466 -0.555570
vn 0.000600 -0.382683 -0.923880
vn 0.001813 -0.555567 -0.831469
vn -0.000384 -0.000001 -1.000000
vn 0.000886 -0.195088 -0.980785
vn -0.001368 0.382682 -0.923879
vn -0.000117 0.195091 -0.980785
vn -0.002202 0.707104 -0.707106
vn -0.001044 0.555570 -0.831469
vn -0.002760 0.923876 -0.382682
vn -0.001754 0.831468 -0.555569
vn -0.002956 0.999996 0.000001
vn -0.002138 0.980783 -0.195089
vn -0.002760 0.923875 0.382685
vn -0.002138 0.980783 0.195091
vn -0.002202 0.707102 0.707108
vn -0.001754 0.831467 0.555571
vn -0.001368 0.382680 0.923880
vn -0.001044 0.555568 0.831470
vn -0.000117 0.195090 0.980785
vn 0.000886 -0.195089 0.980785
vn 0.001991 -0.923877 0.382684
vn 0.000600 -0.382683 0.923879
vn 0.001813 -0.555568 0.831469
vn -0.000384 -0.000002 1.000000
vn 0.999997 0.002561 -0.000002
vn 0.999997 0.002561 -0.000000
vn 0.999997 0.002568 0.000002
vn 0.999997 0.002574 0.000000
vn 0.999997 0.002555 0.000000
vn 0.999997 0.002575 -0.000001
vn 0.999997 0.002570 -0.000000
vn 0.999997 0.002590 0.000000
vn 0.999997 0.002573 0.000001
g X_CylinderX_X
s off
f 72/59/73 71/60/73 75/61/73
f 75/61/74 70/62/74 86/63/74
f 85/64/75 75/61/75 86/63/75
f 84/65/76 75/61/76 85/64/76
f 83/66/77 75/61/77 84/65/77
f 82/67/78 75/61/78 83/66/78
f 81/68/79 75/61/79 82/67/79
f 80/69/80 86/63/80 73/70/80
f 80/69/81 75/61/81 81/68/81
f 80/69/82 79/71/82 75/61/82
f 79/71/83 78/72/83 75/61/83
f 78/72/84 77/73/84 75/61/84
f 77/73/85 76/74/85 75/61/85
f 76/74/86 74/75/86 75/61/86
f 74/75/87 73/70/87 75/61/87
f 73/70/88 72/59/88 75/61/88
f 75/61/89 71/60/89 70/62/89
f 90/76/90 92/77/90 91/78/90
f 93/79/91 91/78/91 92/77/91
f 94/80/92 96/81/92 95/82/92
f 95/82/93 93/79/93 94/80/93
f 96/81/94 98/83/94 97/84/94
f 97/84/95 95/82/95 96/81/95
f 98/83/96 100/85/96 99/86/96
f 99/86/97 97/84/97 98/83/97
f 100/85/98 102/87/98 101/88/98
f 101/88/99 99/86/99 100/85/99
f 102/87/100 104/89/100 103/90/100
f 103/90/101 101/88/101 102/87/101
f 104/89/102 106/91/102 105/92/102
f 105/92/103 103/90/103 104/89/103
f 106/91/104 108/93/104 107/94/104
f 107/94/105 105/92/105 106/91/105
f 108/93/106 110/95/106 109/96/106
f 109/96/107 107/94/107 108/93/107
f 110/95/108 112/97/108 111/98/108
f 111/98/109 109/96/109 110/95/109
f 112/97/110 114/99/110 113/100/110
f 113/100/111 111/98/111 112/97/111
f 114/99/112 116/101/112 115/102/112
f 115/102/113 113/100/113 114/99/113
f 118/103/114 117/104/114 116/101/114
f 117/104/115 115/102/115 116/101/115
f 118/103/116 87/105/116 117/104/116
f 88/106/117 89/107/117 87/105/117
f 92/77/118 94/80/118 93/79/118
f 88/106/119 90/76/119 89/107/119
f 91/78/120 89/107/120 90/76/120
f 87/105/121 118/103/121 88/106/121
f 86/63/80 70/62/80 71/60/80
f 71/60/122 72/59/122 73/70/122
f 73/70/123 74/75/123 76/74/123
f 76/74/124 77/73/124 78/72/124
f 80/69/125 73/70/125 79/71/125
f 80/69/122 81/68/122 82/67/122
f 82/67/123 83/66/123 84/65/123
f 86/63/126 82/67/126 85/64/126
f 86/63/127 71/60/127 73/70/127
f 73/70/128 76/74/128 78/72/128
f 82/67/128 86/63/128 80/69/128
f 82/67/129 84/65/129 85/64/129
f 73/70/130 78/72/130 79/71/130
o Y_CylinderY
v 0.000000 10.382312 0.750000
v -0.287013 10.382312 0.692910
v -0.530330 10.382312 0.530330
v -0.692910 10.382312 0.287013
v -0.750000 10.382312 0.000000
v 0.000000 12.382311 0.000000
v -0.692910 10.382312 -0.287012
v -0.530330 10.382312 -0.530330
v -0.287012 10.382312 -0.692910
v 0.000000 10.382312 -0.750000
v 0.287013 10.382312 -0.692909
v 0.530330 10.382312 -0.530330
v 0.692910 10.382312 -0.287012
v 0.750000 10.382312 0.000001
v 0.692909 10.382312 0.287013
v 0.530329 10.382312 0.530331
v 0.287012 10.382312 0.692910
v 0.000000 0.383181 0.200000
v -0.039018 10.383181 0.196157
v -0.076537 0.383181 0.184776
v -0.111114 10.383181 0.166294
v -0.141421 0.383181 0.141421
v -0.166294 10.383181 0.111114
v -0.184776 0.383181 0.076537
v -0.196157 10.383181 0.039018
v -0.200000 0.383181 0.000000
v -0.196157 10.383181 -0.039018
v -0.184776 0.383181 -0.076537
v -0.166294 10.383181 -0.111114
v -0.141421 0.383181 -0.141421
v -0.111114 10.383181 -0.166294
v -0.076537 0.383181 -0.184776
v -0.039018 10.383181 -0.196157
v 0.000000 0.383181 -0.200000
v 0.039018 10.383181 -0.196157
v 0.076537 0.383181 -0.184776
v 0.111114 10.383181 -0.166294
v 0.141421 0.383181 -0.141421
v 0.166294 10.383181 -0.111114
v 0.184776 0.383181 -0.076537
v 0.196157 10.383181 -0.039018
v 0.200000 0.383181 0.000000
v 0.196157 10.383181 0.039018
v 0.184776 0.383181 0.076537
v 0.166294 10.383181 0.111114
v 0.141421 0.383181 0.141422
v 0.111114 10.383181 0.166294
v 0.076536 0.383181 0.184776
v 0.039018 10.383181 0.196157
vt 0.513546 1.695534
vt 0.521854 1.774383
vt 0.500000 2.541898
vt 0.527411 1.881251
vt 0.529228 1.999867
vt 0.526589 2.112175
vt 0.519341 2.201076
vt 0.508310 2.253035
vt 0.495522 2.260143
vt 0.483692 2.221318
vt 0.475147 2.142469
vt 0.503614 1.656709
vt 0.471083 2.035601
vt 0.471599 1.916984
vt 0.476111 1.804677
vt 0.483695 1.715776
vt 0.493257 1.663816
vt 0.505090 1.897921
vt 0.502493 1.881923
vt 0.995943 -1.028784
vt 0.998902 -1.039137
vt 0.499544 1.877612
vt 0.496659 1.885641
vt 0.002043 -1.037242
vt 1.002043 -1.037242
vt 0.494248 1.904791
vt 0.004846 -1.023386
vt 0.492665 1.932144
vt 0.006862 -0.999679
vt 0.492168 1.963537
vt 0.007790 -0.969730
vt 0.492865 1.994191
vt 0.007522 -0.938099
vt 0.494686 2.019438
vt 0.006136 -0.909601
vt 0.497367 2.035435
vt 0.003861 -0.888575
vt 0.500483 2.039747
vt 0.001037 -0.878222
vt 0.503518 2.031717
vt 0.998067 -0.880117
vt 1.001037 -0.878222
vt 0.505976 2.012568
vt 0.995370 -0.893973
vt 0.507473 1.985215
vt 0.993334 -0.917680
vt 0.507805 1.953821
vt 0.992270 -0.947628
vt 0.992367 -0.979259
vt 0.506958 1.923168
vt 0.993647 -1.007758
vn -0.521422 0.345188 0.780362
vn 0.183098 0.345188 0.920500
vn 0.521421 0.345188 0.780362
vn 0.780361 0.345188 0.521423
vn 0.920500 0.345188 0.183100
vn 0.920500 0.345188 -0.183100
vn 0.780363 0.345188 -0.521420
vn 0.000000 -1.000000 0.000000
vn 0.521422 0.345188 -0.780362
vn 0.183100 0.345188 -0.920500
vn -0.183099 0.345188 -0.920500
vn -0.521422 0.345188 -0.780362
vn -0.780362 0.345188 -0.521421
vn -0.920500 0.345188 -0.183100
vn -0.920500 0.345188 0.183100
vn -0.780362 0.345188 0.521421
vn -0.183099 0.345188 0.920500
vn -0.707107 0.000384 0.707107
vn -0.831470 -0.000384 0.555570
vn -1.000000 0.000384 0.000000
vn -0.980785 -0.000384 0.195090
vn -0.923880 0.000384 -0.382683
vn -0.980785 -0.000384 -0.195090
vn -0.707107 0.000384 -0.707107
vn -0.831470 -0.000384 -0.555570
vn -0.382683 0.000384 -0.923880
vn -0.555570 -0.000384 -0.831469
vn 0.000001 0.000384 -1.000000
vn -0.195090 -0.000384 -0.980785
vn 0.382684 0.000384 -0.923879
vn 0.195090 -0.000384 -0.980785
vn 0.707107 0.000384 -0.707106
vn 0.555571 -0.000384 -0.831469
vn 0.923880 0.000384 -0.382683
vn 0.831470 -0.000384 -0.555570
vn 1.000000 0.000384 0.000001
vn 0.980785 -0.000384 -0.195089
vn 0.923879 0.000384 0.382684
vn 0.980785 -0.000384 0.195091
vn 0.707106 0.000384 0.707108
vn 0.831469 -0.000384 0.555571
vn 0.382682 0.000384 0.923880
vn 0.555569 -0.000384 0.831470
vn 0.195090 -0.000384 0.980785
vn -0.195090 -0.000384 0.980785
vn -0.923879 0.000384 0.382683
vn -0.382684 0.000384 0.923879
vn -0.555570 -0.000384 0.831470
vn -0.000001 0.000384 1.000000
vn 0.000000 -1.000000 -0.000007
vn 0.000000 -1.000000 -0.000015
vn 0.000000 -1.000000 0.000004
vn 0.000000 -1.000000 0.000001
vn 0.000000 -1.000000 -0.000002
g Y_CylinderY_Y
s off
f 121/108/131 120/109/131 124/110/131
f 124/110/132 119/111/132 135/112/132
f 134/113/133 124/110/133 135/112/133
f 133/114/134 124/110/134 134/113/134
f 132/115/135 124/110/135 133/114/135
f 131/116/136 124/110/136 132/115/136
f 130/117/137 124/110/137 131/116/137
f 129/118/138 135/112/138 122/119/138
f 129/118/139 124/110/139 130/117/139
f 129/118/140 128/120/140 124/110/140
f 128/120/141 127/121/141 124/110/141
f 127/121/142 126/122/142 124/110/142
f 126/122/143 125/123/143 124/110/143
f 125/123/144 123/124/144 124/110/144
f 123/124/145 122/119/145 124/110/145
f 122/119/146 121/108/146 124/110/146
f 124/110/147 120/109/147 119/111/147
f 139/125/148 141/126/148 140/127/148
f 142/128/149 140/127/149 141/126/149
f 143/129/150 145/130/150 144/131/150
f 144/132/151 142/128/151 143/129/151
f 145/130/152 147/133/152 146/134/152
f 146/134/153 144/131/153 145/130/153
f 147/133/154 149/135/154 148/136/154
f 148/136/155 146/134/155 147/133/155
f 149/135/156 151/137/156 150/138/156
f 150/138/157 148/136/157 149/135/157
f 151/137/158 153/139/158 152/140/158
f 152/140/159 150/138/159 151/137/159
f 153/139/160 155/141/160 154/142/160
f 154/142/161 152/140/161 153/139/161
f 155/141/162 157/143/162 156/144/162
f 156/144/163 154/142/163 155/141/163
f 157/143/164 159/145/164 158/146/164
f 158/146/165 156/144/165 157/143/165
f 159/145/166 161/147/166 160/148/166
f 160/148/167 158/149/167 159/145/167
f 161/147/168 163/150/168 162/151/168
f 162/151/169 160/148/169 161/147/169
f 163/150/170 165/152/170 164/153/170
f 164/153/171 162/151/171 163/150/171
f 167/154/172 166/155/172 165/152/172
f 166/155/173 164/153/173 165/152/173
f 167/154/174 136/156/174 166/155/174
f 137/157/175 138/158/175 136/156/175
f 141/126/176 143/129/176 142/128/176
f 137/157/177 139/125/177 138/158/177
f 140/127/178 138/158/178 139/125/178
f 136/156/179 167/154/179 137/157/179
f 135/112/138 119/111/138 120/109/138
f 120/109/180 121/108/180 122/119/180
f 122/119/138 123/124/138 125/123/138
f 125/123/138 126/122/138 127/121/138
f 129/118/138 122/119/138 128/120/138
f 129/118/181 130/117/181 131/116/181
f 131/116/182 132/115/182 133/114/182
f 135/112/138 131/116/138 134/113/138
f 135/112/138 120/109/138 122/119/138
f 122/119/138 125/123/138 127/121/138
f 131/116/183 135/112/183 129/118/183
f 131/116/138 133/114/138 134/113/138
f 122/119/184 127/121/184 128/120/184
